<?xml version="1.0" encoding="UTF-8" standalone="no" ?>
<!DOCTYPE svg PUBLIC "-//W3C//DTD SVG 1.1//EN" "http://www.w3.org/Graphics/SVG/1.1/DTD/svg11.dtd">
<svg xmlns="http://www.w3.org/2000/svg" xmlns:xlink="http://www.w3.org/1999/xlink" version="1.1" width="500" height="270" viewBox="0 0 500 270" xml:space="preserve">
<desc>Created with Fabric.js 4.6.0</desc>
<defs>
</defs>
<g transform="matrix(1.16 0 0 1.16 113.86 75.13)" id="E9BCFJzz6SYrr1_aqz2Nh"  >
<path style="stroke: rgb(0,0,0); stroke-width: 1; stroke-dasharray: none; stroke-linecap: butt; stroke-dashoffset: 0; stroke-linejoin: miter; stroke-miterlimit: 4; fill: rgb(255,255,255); fill-opacity: 0; fill-rule: nonzero; opacity: 1;" vector-effect="non-scaling-stroke"  transform=" translate(0, 0)" d="M 0 0" stroke-linecap="round" />
</g>
<g transform="matrix(1.16 0 0 1.16 111.55 135.46)" id="JmlCiKlXeEQ4bJ4HuoOQF"  >
<path style="stroke: rgb(0,0,0); stroke-width: 0; stroke-dasharray: none; stroke-linecap: butt; stroke-dashoffset: 0; stroke-linejoin: miter; stroke-miterlimit: 4; fill: rgb(231,231,222); fill-rule: nonzero; opacity: 1;" vector-effect="non-scaling-stroke"  transform=" translate(0, 0)" d="M 80 -100 L -49.80196000000001 -100 L -49.80196000000001 -100 C -66.47988000000001 -100 -80 -86.47988 -80 -69.80196000000001 L -80 76.06963999999999 L -80 76.06963999999999 C -80 89.28600999999999 -69.28602000000001 99.99999 -56.069649999999996 99.99999 L 55.12575000000001 99.99999 L 55.12575000000001 99.99999 C 68.86342 99.99999 79.99999000000001 88.86341 79.99999000000001 75.12575 L 79.99999000000001 -20.000010000000003 L 39.99999000000001 -20.000010000000003 L 39.99999000000001 -20.000010000000003 C 17.90860000000001 -20.000010000000003 -0.000009999999988963282 -2.0914000000000037 -0.000009999999988963282 19.999989999999997 L -0.000009999999988963282 19.999989999999997 L 39.99999000000001 19.999989999999997 L 39.99999000000001 59.99999 L -40.00000999999999 59.99999 L -40.00000999999999 -60.00001 L 39.99999000000001 -60.00001 L 39.99999000000001 -60.00001 C 62.091380000000015 -60.00001 79.99999000000001 -77.90862 79.99999000000001 -100.00001 z" stroke-linecap="round" />
</g>
<g transform="matrix(-1.16 0 0 -1.16 391.25 135.54)" id="R4B-0FMFjCibodOoPOx8e"  >
<path style="stroke: rgb(0,0,0); stroke-width: 0; stroke-dasharray: none; stroke-linecap: butt; stroke-dashoffset: 0; stroke-linejoin: miter; stroke-miterlimit: 4; fill: rgb(231,231,222); fill-rule: nonzero; opacity: 1;" vector-effect="non-scaling-stroke"  transform=" translate(0, 0)" d="M 80 -100 L -49.86689999999999 -100 L -49.86689999999999 -100 C -66.50894999999998 -100 -79.99999999999999 -86.47988 -79.99999999999999 -69.80196000000001 L -79.99999999999999 76.06963999999999 L -79.99999999999999 76.06963999999999 C -79.99999999999999 89.28600999999999 -69.30905999999999 99.99999 -56.12110999999999 99.99999 L 55.17925000000001 99.99999 L 55.17925000000001 99.99999 C 68.88737 99.99999 80.00000000000001 88.86341 80.00000000000001 75.12575 L 80.00000000000001 -20.000010000000003 L 15.780850000000015 -19.892750000000003 L 15.780850000000015 -19.892750000000003 C -5.772439999999985 -19.85675 -23.225799999999985 -2.3365900000000046 -23.225799999999985 19.263179999999995 L -23.225799999999985 19.263179999999995 L 40.00001000000002 19.999989999999993 L 40.00001000000002 59.99999 L -39.99998999999998 59.99999 L -39.99998999999998 -60.00001 L 40.08603000000002 -60.00001 L 40.08603000000002 -60.00001 C 62.129910000000024 -60.00001 80.00001000000003 -77.90862 80.00001000000003 -100.00001 z" stroke-linecap="round" />
</g>
<g transform="matrix(1.16 0 0 1.16 250.75 181.86)" id="novnUxv2wK7NHyini4Coz"  >
<path style="stroke: rgb(0,0,0); stroke-width: 0; stroke-dasharray: none; stroke-linecap: butt; stroke-dashoffset: 0; stroke-linejoin: miter; stroke-miterlimit: 4; fill: rgb(231,231,222); fill-rule: nonzero; opacity: 1;" vector-effect="non-scaling-stroke"  transform=" translate(0, 0)" d="M 20 -60 C -2.0913900000000005 -60 -20 -42.091390000000004 -20 -20 L -20 60 L 20 60 z" stroke-linecap="round" />
</g>
</svg>